<?xml version="1.0" encoding="UTF-8"?>
<svg version="1.1" xmlns="http://www.w3.org/2000/svg" width="132" height="135">
<path d="M0 0 C43.56 0 87.12 0 132 0 C132 44.55 132 89.1 132 135 C88.44 135 44.88 135 0 135 C0 90.45 0 45.9 0 0 Z " fill="#E3F5EF" transform="translate(0,0)"/>
<path d="M0 0 C43.56 0 87.12 0 132 0 C132 44.55 132 89.1 132 135 C88.44 135 44.88 135 0 135 C0 90.45 0 45.9 0 0 Z M57.32421875 6.9609375 C49.13257892 7.31889151 41.50421025 10.9554879 34 14 C34 14.66 34 15.32 34 16 C32.89205078 16.40992188 32.89205078 16.40992188 31.76171875 16.828125 C24.2521094 20.01466362 19.28412706 25.49665306 14.625 32 C14.20839111 32.58104492 13.79178223 33.16208984 13.36254883 33.76074219 C4.68591937 46.35237149 1.70283527 62.25266383 4.40722656 77.25976562 C8.15818178 93.95476861 16.84030203 107.26802032 30.6796875 117.5390625 C34.56735478 119.98685301 38.67901477 121.49815535 43 123 C44.15371094 123.52335937 45.30742188 124.04671875 46.49609375 124.5859375 C52.18959687 126.72058425 57.9953858 126.43627157 64 126.375 C65.13695312 126.38660156 66.27390625 126.39820312 67.4453125 126.41015625 C74.05515451 126.38715216 78.98438327 125.74360898 85 123 C87.66666667 122 90.33333333 121 93 120 C93 119.34 93 118.68 93 118 C93.71285156 117.92910156 94.42570312 117.85820313 95.16015625 117.78515625 C104.31260877 115.25469826 111.98689855 104.14305248 116.5859375 96.29296875 C124.92719877 80.77008497 125.87018785 65.33010084 121.1328125 48.6015625 C119.80954156 44.3944735 118.33262141 40.73219425 116 37 C115.58105469 36.2884375 115.16210938 35.576875 114.73046875 34.84375 C106.45391535 21.52830321 94.58124763 12.93434057 79.49609375 8.71484375 C72.12380067 7.20743634 64.82699051 7.07046701 57.32421875 6.9609375 Z " fill="#FBFBFC" transform="translate(0,0)"/>
<path d="M0 0 C2 2 2 2 2.35473633 4.34619141 C1.89361943 7.79584086 0.72208968 8.95977284 -1.67578125 11.4609375 C-2.91062256 12.76369629 -2.91062256 12.76369629 -4.17041016 14.09277344 C-4.62514709 14.55985718 -5.07988403 15.02694092 -5.54840088 15.50817871 C-7.07276977 17.07478614 -8.57880516 18.65765882 -10.08349609 20.24316406 C-12.84752828 23.14380436 -15.6444961 26.00993571 -18.45776367 28.86279297 C-19.62252308 30.0494173 -20.78095951 31.24227756 -21.93334961 32.44091797 C-23.62229444 34.19658479 -25.32996161 35.93190514 -27.04296875 37.6640625 C-27.55248581 38.20141022 -28.06200287 38.73875793 -28.58695984 39.29238892 C-31.0705617 41.76195769 -32.64092818 42.93973933 -36.13061523 43.52539062 C-39.36855107 42.93251749 -40.54984813 42.22075744 -42.8671875 39.9296875 C-43.52460937 39.28 -44.18203125 38.6303125 -44.859375 37.9609375 C-45.52453125 37.27257812 -46.1896875 36.58421875 -46.875 35.875 C-47.56335937 35.20984375 -48.25171875 34.5446875 -48.9609375 33.859375 C-53.84458466 28.91758918 -53.84458466 28.91758918 -54.5703125 24.6328125 C-54 22 -54 22 -52 20 C-49.69921875 19.5625 -49.69921875 19.5625 -47 20 C-44.39453125 22.1875 -44.39453125 22.1875 -41.8125 25 C-40.240436 26.69698063 -38.64296882 28.37157072 -37 30 C-36.34 30 -35.68 30 -35 30 C-33.5687758 28.6017531 -33.5687758 28.6017531 -32.06640625 26.71875 C-27.71641115 21.61091211 -23.10507277 16.77815022 -18.40209961 11.99707031 C-17.41764562 10.99079062 -16.43952065 9.97828372 -15.4675293 8.95996094 C-14.04342272 7.46901388 -12.60063462 5.99866921 -11.15234375 4.53125 C-10.30663818 3.66048828 -9.46093262 2.78972656 -8.58959961 1.89257812 C-5.44424211 -0.40616906 -3.81432181 -0.55548698 0 0 Z " fill="#1FBD89" transform="translate(90,45)"/>
</svg>
