<?xml version="1.0" encoding="UTF-8"?>
<svg version="1.1" xmlns="http://www.w3.org/2000/svg" width="136" height="128">
<path d="M0 0 C44.88 0 89.76 0 136 0 C136 42.24 136 84.48 136 128 C91.12 128 46.24 128 0 128 C0 85.76 0 43.52 0 0 Z " fill="#FAF0F0" transform="translate(0,0)"/>
<path d="M0 0 C3.29122018 0.3308123 4.06333124 1.13333102 6.25585938 3.54882812 C7.21298828 4.56396484 7.21298828 4.56396484 8.18945312 5.59960938 C10.16210938 7.76757812 10.16210938 7.76757812 12.13476562 9.93554688 C12.77285156 10.61230469 13.4109375 11.2890625 14.06835938 11.98632812 C14.63876953 12.61474609 15.20917969 13.24316406 15.796875 13.890625 C17.62050343 15.45579384 17.62050343 15.45579384 20.16210938 15.67773438 C23.25944015 15.16957854 24.16479735 14.29004053 26.25585938 11.98632812 C26.89394531 11.30957031 27.53203125 10.6328125 28.18945312 9.93554688 C28.84042969 9.22011719 29.49140625 8.5046875 30.16210938 7.76757812 C31.45192015 6.35006331 32.75361789 4.94325091 34.06835938 3.54882812 C34.63876953 2.92041016 35.20917969 2.29199219 35.796875 1.64453125 C38.24142883 -0.16008702 39.68981635 -0.1411424 42.66210938 0.26757812 C44.66210938 2.26757812 44.66210938 2.26757812 45.25976562 4.91992188 C44.33874983 10.07881426 40.90296008 12.43532373 37.09960938 15.83007812 C35.66838914 17.10836299 34.24967404 18.40082948 32.84570312 19.70898438 C32.21204834 20.27302979 31.57839355 20.8370752 30.92553711 21.41821289 C29.41351056 23.23879734 29.41351056 23.23879734 29.75195312 25.76757812 C30.77900277 28.58865868 31.82817127 29.82331172 34.04101562 31.82617188 C34.71455078 32.45974609 35.38808594 33.09332031 36.08203125 33.74609375 C37.51060479 35.05225533 38.9429091 36.35434814 40.37890625 37.65234375 C45.54878219 42.53472898 45.54878219 42.53472898 46.18945312 46.67773438 C45.66210938 49.26757812 45.66210938 49.26757812 44.66210938 50.26757812 C41.34716788 50.74585327 38.80236029 51.02476602 35.91796875 49.109375 C34.15316213 47.48427368 32.52675506 45.7917888 30.91210938 44.01757812 C30.34878906 43.43105469 29.78546875 42.84453125 29.20507812 42.24023438 C26.48999717 39.38394353 23.93251711 36.49731307 21.66210938 33.26757812 C18.62211602 34.61455698 16.65944359 36.07922804 14.41992188 38.52539062 C13.82824219 39.15058594 13.2365625 39.77578125 12.62695312 40.41992188 C11.40010515 41.73533212 10.18131333 43.05830238 8.97070312 44.38867188 C4.43769053 49.13801045 4.43769053 49.13801045 0.34179688 49.82226562 C-2.33789062 49.26757812 -2.33789062 49.26757812 -4.33789062 47.26757812 C-4.74376094 44.28987739 -4.7205971 42.82080082 -2.99267578 40.32299805 C-2.3769873 39.72076416 -1.76129883 39.11853027 -1.12695312 38.49804688 C-0.12535156 37.50708008 -0.12535156 37.50708008 0.89648438 36.49609375 C1.60289063 35.82255859 2.30929688 35.14902344 3.03710938 34.45507812 C3.73578125 33.76220703 4.43445313 33.06933594 5.15429688 32.35546875 C10.367505 27.26757812 10.367505 27.26757812 12.66210938 27.26757812 C9.79021468 21.58808489 5.10187474 17.7735961 0.40429688 13.61523438 C-1.41051989 11.90207747 -2.96740367 10.35491781 -4.33789062 8.26757812 C-4.30660421 0.4929029 -4.30660421 0.4929029 0 0 Z " fill="#EF4E4E" transform="translate(48.337890625,37.732421875)"/>
<path d="M0 0 C1.2065625 0.0309375 1.2065625 0.0309375 2.4375 0.0625 C2.7675 0.7225 3.0975 1.3825 3.4375 2.0625 C2.674375 2.31 1.91125 2.5575 1.125 2.8125 C-1.7989045 4.17245558 -2.86254356 5.37835826 -4.5625 8.0625 C-3.54737544 0.08652135 -3.54737544 0.08652135 0 0 Z " fill="#F27272" transform="translate(48.5625,37.9375)"/>
</svg>
